<svg xmlns="http://www.w3.org/2000/svg" width="24" height="24">
  <path fill="#6b0609" d="M17.5 5.01 19.1 5c.02 4.59.03 9.19 0 13.78l-1.65.02v-8.63l-.01-2.36c-.92 1.74-1.96 3.41-2.96 5.13-.64 1.08-1.22 2.31-2.01 3.29a1.03 1.03 0 0 1-.58.02.87.87 0 0 1-.24-.1c-.43-.34-4.39-7.28-5.02-8.34.16 1.25.06 2.62.06 3.88v7.09L5 18.79c.05-4.59-.03-9.19.01-13.77l1.84.01c.81 1.46 1.69 2.88 2.54 4.32.89 1.54 1.77 3.09 2.72 4.58.97-1.77 2.06-3.49 3.11-5.22.74-1.24 1.45-2.52 2.27-3.69z"/>
  <path fill="#6b0609" d="M10.84.05c6.58-.61 12.41 4.23 13.01 10.8.61 6.58-4.23 12.4-10.81 13-6.57.6-12.38-4.23-12.99-10.8C-.56 6.48 4.28.66 10.84.05zm2.39 22.54c5.87-.7 10.06-6.04 9.35-11.91-.71-5.87-6.05-10.05-11.92-9.34C4.8 2.05.62 7.38 1.33 13.24c.71 5.87 6.03 10.06 11.9 9.35z"/>
</svg>